<svg xmlns="http://www.w3.org/2000/svg" version="1.1" xmlns:xlink="http://www.w3.org/1999/xlink" xmlns:svgjs="http://svgjs.dev/svgjs" width="1500" height="1687" viewBox="0 0 1500 1687"><g transform="matrix(1,0,0,1,0.00002668866648036783,0)"><svg viewBox="0 0 320 360" data-background-color="#293040" preserveAspectRatio="xMidYMid meet" height="1687" width="1500" xmlns="http://www.w3.org/2000/svg" xmlns:xlink="http://www.w3.org/1999/xlink"><g id="tight-bounds" transform="matrix(1,0,0,1,0.000005693582238563977,0)"><svg viewBox="0 0 320 360" height="360" width="320"><g><svg></svg></g><g><svg viewBox="0 0 320 360" height="360" width="320"><g><path transform="translate(-8.74414,11.24127) scale(3.37517,3.37517)" d="M89.9 29.89c-2.6-3.17-7.52-4.8-12.74-6.52-2.24-0.74-4.55-1.51-6.81-2.44-2.28-0.94-4.52-2.15-6.7-3.31-4.43-2.38-9.01-4.84-13.66-4.84-4.64 0-9.22 2.46-13.65 4.84-2.18 1.17-4.43 2.38-6.71 3.32-2.25 0.93-4.57 1.69-6.81 2.44-5.22 1.73-10.14 3.36-12.74 6.52-3.47 4.23-3.39 10.5-3.31 17.13 0.01 1 0.02 1.99 0.02 2.97 0 0.98-0.01 1.97-0.03 2.97-0.08 6.64-0.16 12.9 3.31 17.14 2.6 3.16 7.52 4.79 12.73 6.52 2.24 0.74 4.55 1.51 6.82 2.44 2.28 0.94 4.52 2.14 6.69 3.31 4.44 2.39 9.02 4.85 13.66 4.85 4.65 0 9.23-2.46 13.66-4.84 2.18-1.17 4.42-2.38 6.7-3.31 2.25-0.93 4.55-1.69 6.78-2.43 5.25-1.74 10.17-3.37 12.77-6.53 3.47-4.23 3.39-10.5 3.31-17.13-0.01-1.01-0.03-2-0.03-2.98 0-0.98 0.01-1.97 0.03-2.96 0.11-6.66 0.19-12.93-3.29-17.16zM93.12 27.25c-4.66-5.68-13.57-7.03-21.18-10.17-6.81-2.8-13.74-8.47-21.94-8.47-8.2 0-15.13 5.67-21.94 8.47-7.62 3.14-16.52 4.49-21.18 10.17-5.06 6.16-4.24 14.85-4.24 22.75 0 7.89-0.82 16.59 4.23 22.75 4.66 5.68 13.57 7.03 21.18 10.17 6.81 2.81 13.74 8.47 21.94 8.47 8.2 0 15.13-5.66 21.94-8.47 7.62-3.14 16.52-4.49 21.18-10.17 5.05-6.16 4.23-14.85 4.23-22.75 0.02-7.9 0.84-16.59-4.22-22.75zM94.4 52.94c0.09 6.88 0.17 13.35-3.58 17.92-2.82 3.43-7.9 5.12-13.28 6.9-2.24 0.74-4.53 1.5-6.73 2.41-2.22 0.91-4.43 2.1-6.57 3.25-4.58 2.46-9.29 4.99-14.24 4.99-4.95 0-9.66-2.53-14.22-4.98-2.15-1.16-4.37-2.35-6.59-3.26-2.23-0.92-4.52-1.68-6.74-2.41-5.39-1.78-10.47-3.47-13.28-6.9-3.74-4.56-3.66-11.04-3.58-17.9 0.01-1 0.03-1.98 0.03-2.96 0-0.98-0.01-1.96-0.02-2.96-0.09-6.86-0.17-13.34 3.58-17.9 2.82-3.43 7.9-5.11 13.28-6.9 2.23-0.74 4.52-1.5 6.74-2.41 2.22-0.92 4.44-2.11 6.59-3.26 4.56-2.45 9.28-4.99 14.22-4.99 4.94 0 9.66 2.53 14.22 4.98 2.15 1.16 4.37 2.35 6.59 3.26 2.22 0.92 4.52 1.67 6.73 2.41 5.38 1.78 10.47 3.47 13.28 6.9 3.75 4.57 3.67 11.04 3.58 17.9-0.01 1.01-0.03 1.99-0.03 2.96 0 0.98 0.01 1.96 0.02 2.95z" fill="#36425a" fill-rule="nonzero" stroke="none" stroke-width="1" stroke-linecap="butt" stroke-linejoin="miter" stroke-miterlimit="10" stroke-dasharray="" stroke-dashoffset="0" font-family="none" font-weight="none" font-size="none" text-anchor="none" style="mix-blend-mode: normal" data-fill-palette-color="tertiary"></path></g><g transform="matrix(1,0,0,1,88.56570696829837,108)"><svg viewBox="0 0 142.86858606340326 144" height="144" width="142.86858606340326"><g><svg viewBox="0 0 192 193.5204985351375" height="144" width="142.86858606340326"><g transform="matrix(1,0,0,1,0,119.60343175207335)"><svg viewBox="0 0 192 73.91706678306417" height="73.91706678306417" width="192"><g id="textblocktransform"><svg viewBox="0 0 192 73.91706678306417" height="73.91706678306417" width="192" id="textblock"><g><svg viewBox="0 0 192 73.91706678306417" height="73.91706678306417" width="192"><g transform="matrix(1,0,0,1,0,0)"><svg width="192" viewBox="3.95 -34.1 114.53999999999999 44.1" height="73.91706678306417" data-palette-color="#ecf0fb"><path d="M7.7 0L3.95 0 3.95-34.1 22.55-34.1 22.55-30.95 7.7-30.95 7.7-19.05 18.7-19.05 18.7-16 7.7-16 7.7 0ZM35.9 0.8Q32.55 0.8 29.9-0.8 27.25-2.4 25.75-5.28 24.25-8.15 24.25-11.75L24.25-11.75Q24.25-15.35 25.72-18.18 27.2-21 29.82-22.6 32.45-24.2 35.8-24.2L35.8-24.2Q39.15-24.2 41.8-22.6 44.45-21 45.95-18.15 47.45-15.3 47.45-11.7L47.45-11.7Q47.45-8.1 45.97-5.25 44.5-2.4 41.87-0.8 39.25 0.8 35.9 0.8L35.9 0.8ZM35.8-2.3Q38.2-2.3 40.07-3.5 41.95-4.7 43-6.85 44.05-9 44.05-11.7L44.05-11.7Q44.05-14.4 43-16.55 41.95-18.7 40.07-19.9 38.2-21.1 35.8-21.1L35.8-21.1Q33.45-21.1 31.6-19.9 29.75-18.7 28.7-16.57 27.65-14.45 27.65-11.75L27.65-11.75Q27.65-9 28.7-6.85 29.75-4.7 31.6-3.5 33.45-2.3 35.8-2.3L35.8-2.3ZM63.74-24.2Q64.94-24.2 66.05-23.85L66.05-23.85 66.05-20.75Q65-21.25 63.74-21.25L63.74-21.25Q61.59-21.25 59.74-20.05 57.89-18.85 56.77-16.57 55.64-14.3 55.64-11.2L55.64-11.2 55.64 0 52.24 0 52.24-23.4 55.64-23.4 55.64-18.7Q56.99-21.3 59.07-22.75 61.14-24.2 63.74-24.2L63.74-24.2ZM87.54-23.4L90.94-23.4 90.94-0.9Q90.94 2.25 89.64 4.73 88.34 7.2 85.99 8.6 83.64 10 80.64 10L80.64 10 70.94 10 70.94 6.9 80.64 6.9Q83.69 6.9 85.62 4.7 87.54 2.5 87.54-0.9L87.54-0.9 87.54-3.45Q86.09-1.45 83.99-0.33 81.89 0.8 79.39 0.8L79.39 0.8Q76.04 0.8 73.39-0.8 70.74-2.4 69.24-5.25 67.74-8.1 67.74-11.75L67.74-11.75Q67.74-15.35 69.22-18.18 70.69-21 73.32-22.6 75.94-24.2 79.29-24.2L79.29-24.2Q81.84-24.2 83.97-23.08 86.09-21.95 87.54-19.9L87.54-19.9 87.54-23.4ZM79.29-2.3Q81.69-2.3 83.57-3.5 85.44-4.7 86.49-6.85 87.54-9 87.54-11.7L87.54-11.7Q87.54-14.4 86.49-16.55 85.44-18.7 83.57-19.9 81.69-21.1 79.29-21.1L79.29-21.1Q76.94-21.1 75.09-19.9 73.24-18.7 72.19-16.57 71.14-14.45 71.14-11.75L71.14-11.75Q71.14-9 72.19-6.85 73.24-4.7 75.09-3.5 76.94-2.3 79.29-2.3L79.29-2.3ZM107.34-24.2Q110.49-24.2 113.04-22.65 115.59-21.1 117.04-18.43 118.49-15.75 118.49-12.45L118.49-12.45Q118.49-11.5 118.44-11L118.44-11 99.19-11Q99.39-7.4 101.54-4.85 103.69-2.3 107.39-2.3L107.39-2.3Q110.39-2.3 112.37-3.43 114.34-4.55 115.54-6.55L115.54-6.55 118.24-4.75Q116.59-2.15 113.89-0.68 111.19 0.8 107.49 0.8L107.49 0.8Q104.09 0.8 101.44-0.8 98.79-2.4 97.29-5.25 95.79-8.1 95.79-11.7L95.79-11.7Q95.79-15.3 97.27-18.15 98.74-21 101.37-22.6 103.99-24.2 107.34-24.2L107.34-24.2ZM99.39-13.8L115.09-13.8Q114.59-17.45 112.64-19.28 110.69-21.1 107.34-21.1L107.34-21.1Q104.09-21.1 102.02-19.03 99.94-16.95 99.39-13.8L99.39-13.8Z" opacity="1" transform="matrix(1,0,0,1,0,0)" fill="#ecf0fb" class="wordmark-text-0" data-fill-palette-color="quaternary" id="text-0"></path></svg></g></svg></g></svg></g></svg></g><g transform="matrix(1,0,0,1,44.92330685290267,0)"><svg viewBox="0 0 102.15338629419466 102.15338629419469" height="102.15338629419469" width="102.15338629419466"><g><svg></svg></g><g id="icon-0"><svg viewBox="0 0 102.15338629419466 102.15338629419469" height="102.15338629419469" width="102.15338629419466"><g><path transform="scale(1.02153,1.02153)" d="M30 100c-16.569 0-30-13.431-30-30v-40c0-16.569 13.431-30 30-30h40c16.569 0 30 13.431 30 30v40c0 16.569-13.431 30-30 30z" fill="#ff851b" fill-rule="nonzero" stroke="none" stroke-width="1" stroke-linecap="butt" stroke-linejoin="miter" stroke-miterlimit="10" stroke-dasharray="" stroke-dashoffset="0" font-family="none" font-weight="none" font-size="none" text-anchor="none" style="mix-blend-mode: normal" data-fill-palette-color="accent"></path></g><g transform="matrix(1,0,0,1,20.43067725883893,20.47801358086485)"><svg viewBox="0 0 61.2920317765168 61.19735913246499" height="61.19735913246499" width="61.2920317765168"><g><svg xmlns="http://www.w3.org/2000/svg" xmlns:xlink="http://www.w3.org/1999/xlink" version="1.1" x="0" y="0" viewBox="4.860769515458673 5 90.13923048454133 90" style="enable-background:new 0 0 100 100;" xml:space="preserve" height="61.19735913246499" width="61.2920317765168" class="icon-cg-0" data-fill-palette-color="quaternary" id="cg-0"><g class="" display="none" fill="#ecf0fb" data-fill-palette-color="quaternary"><rect x="5" y="5" class="" width="90" height="90" display="inline" opacity="0.3" fill="#ecf0fb" enable-background="new" data-fill-palette-color="quaternary"></rect></g><g fill="#ecf0fb" data-fill-palette-color="quaternary"><g fill="#ecf0fb" data-fill-palette-color="quaternary"><path d="M94.6 40c-4.2 0-44.1 0-48.2 0-0.2 0-0.3 0.3-0.3 0.4-0.3 3.8-5.6 3.7-7 3.6-0.2 0-0.1 0.2-0.1 0.4v12.9c20 0 0.8 16.5-8.1 20.8-0.4 0.2-0.5 0.9 0 0.9h20.8c0.1 0 0.1 0 0.1-0.1 0.1-1.1 1.4-9.1 7.8-9.1s8 8 8.1 9.1c0 0.1 0.1 0.1 0.1 0.1h18.3c0.5 0 0.6-0.6 0.2-0.8-4.3-2.6-16.5-10.3-14.6-19C73.7 50 86 47.5 89.1 47c0.4-0.1 0.9-0.4 0.9-0.9V44h3.9c0.6 0 1.1-0.4 1.1-1v-2.4C95 40.4 94.8 40 94.6 40z" fill="#ecf0fb" data-fill-palette-color="quaternary"></path><path d="M36 47H5.1c-0.2 0-0.3 0.2-0.2 0.4 1.7 2 8.5 9.9 31.1 9.9V47z" fill="#ecf0fb" data-fill-palette-color="quaternary"></path></g><g fill="#ecf0fb" data-fill-palette-color="quaternary"><g fill="#ecf0fb" data-fill-palette-color="quaternary"><path d="M71.5 37.3c-0.2 0-0.5-0.1-0.7-0.3-0.4-0.4-0.3-1 0-1.3l9.8-9.2c0.4-0.4 1-0.3 1.3 0 0.4 0.4 0.3 1 0 1.3L72.1 37C71.9 37.2 71.7 37.3 71.5 37.3z" fill="#ecf0fb" data-fill-palette-color="quaternary"></path></g><g fill="#ecf0fb" data-fill-palette-color="quaternary"><path d="M80.3 36.8c-0.4 0-0.7-0.2-0.9-0.6-0.2-0.5 0.1-1 0.5-1.2l5.9-2.2c0.5-0.2 1 0.1 1.2 0.5 0.2 0.5-0.1 1-0.5 1.2l-5.9 2.3C80.5 36.8 80.4 36.8 80.3 36.8z" fill="#ecf0fb" data-fill-palette-color="quaternary"></path></g><g fill="#ecf0fb" data-fill-palette-color="quaternary"><path d="M58.6 34.4c-0.3 0-0.5-0.1-0.7-0.3l-9.4-11c-0.3-0.4-0.3-1 0.1-1.3 0.4-0.3 1-0.3 1.3 0.1l9.4 11c0.3 0.4 0.3 1-0.1 1.3C59.1 34.3 58.8 34.4 58.6 34.4z" fill="#ecf0fb" data-fill-palette-color="quaternary"></path></g><g fill="#ecf0fb" data-fill-palette-color="quaternary"><path d="M65.9 32.7c-0.1 0-0.2 0-0.3 0-0.5-0.2-0.7-0.7-0.6-1.2l2-5.9c0.2-0.5 0.7-0.7 1.2-0.6 0.5 0.2 0.7 0.7 0.6 1.2l-2 5.9C66.7 32.5 66.3 32.7 65.9 32.7z" fill="#ecf0fb" data-fill-palette-color="quaternary"></path></g><g fill="#ecf0fb" data-fill-palette-color="quaternary"><path d="M51.6 36.7c-0.1 0-0.3 0-0.4-0.1l-5.5-2.9c-0.5-0.2-0.6-0.8-0.4-1.3 0.2-0.5 0.8-0.6 1.3-0.4l5.4 3c0.5 0.2 0.6 0.8 0.4 1.3C52.2 36.5 51.9 36.7 51.6 36.7z" fill="#ecf0fb" data-fill-palette-color="quaternary"></path></g><g fill="#ecf0fb" data-fill-palette-color="quaternary"><path d="M61.7 28.9c-0.4 0-0.8-0.3-0.9-0.7l-1.5-5.1c-0.1-0.5 0.1-1 0.6-1.2 0.5-0.1 1 0.1 1.2 0.6l1.5 5.1c0.1 0.5-0.1 1-0.6 1.2C61.9 28.9 61.8 28.9 61.7 28.9z" fill="#ecf0fb" data-fill-palette-color="quaternary"></path></g></g></g></svg></g></svg></g></svg></g></svg></g><g></g></svg></g></svg></g></svg></g><defs></defs></svg><rect width="320" height="360" fill="none" stroke="none" visibility="hidden"></rect></g></svg></g></svg>