<svg xmlns="http://www.w3.org/2000/svg" version="1.1" xmlns:xlink="http://www.w3.org/1999/xlink" xmlns:svgjs="http://svgjs.dev/svgjs" width="128" height="128" viewBox="0 0 128 128"><g transform="matrix(0.44782608695652176,0,0,0.44782608695652176,35.33918388075771,12.5)"><svg viewBox="0 0 125 225" data-background-color="#293040" preserveAspectRatio="xMidYMid meet" height="230" width="128" xmlns="http://www.w3.org/2000/svg" xmlns:xlink="http://www.w3.org/1999/xlink"><g id="tight-bounds" transform="matrix(1,0,0,1,-0.00011654822391449216,0)"><svg viewBox="0 0 125 225" height="225" width="125"><g><svg></svg></g><g><svg viewBox="0 0 125 225" height="225" width="125"><g><path transform="translate(-3.41568,46.57862) scale(1.31843,1.31843)" d="M89.9 29.89c-2.6-3.17-7.52-4.8-12.74-6.52-2.24-0.74-4.55-1.51-6.81-2.44-2.28-0.94-4.52-2.15-6.7-3.31-4.43-2.38-9.01-4.84-13.66-4.84-4.64 0-9.22 2.46-13.65 4.84-2.18 1.17-4.43 2.38-6.71 3.32-2.25 0.93-4.57 1.69-6.81 2.44-5.22 1.73-10.14 3.36-12.74 6.52-3.47 4.23-3.39 10.5-3.31 17.13 0.01 1 0.02 1.99 0.02 2.97 0 0.98-0.01 1.97-0.03 2.97-0.08 6.64-0.16 12.9 3.31 17.14 2.6 3.16 7.52 4.79 12.73 6.52 2.24 0.74 4.55 1.51 6.82 2.44 2.28 0.94 4.52 2.14 6.69 3.31 4.44 2.39 9.02 4.85 13.66 4.85 4.65 0 9.23-2.46 13.66-4.84 2.18-1.17 4.42-2.38 6.7-3.31 2.25-0.93 4.55-1.69 6.78-2.43 5.25-1.74 10.17-3.37 12.77-6.53 3.47-4.23 3.39-10.5 3.31-17.13-0.01-1.01-0.03-2-0.03-2.98 0-0.98 0.01-1.97 0.03-2.96 0.11-6.66 0.19-12.93-3.29-17.16zM93.12 27.25c-4.66-5.68-13.57-7.03-21.18-10.17-6.81-2.8-13.74-8.47-21.94-8.47-8.2 0-15.13 5.67-21.94 8.47-7.62 3.14-16.52 4.49-21.18 10.17-5.06 6.16-4.24 14.85-4.24 22.75 0 7.89-0.82 16.59 4.23 22.75 4.66 5.68 13.57 7.03 21.18 10.17 6.81 2.81 13.74 8.47 21.94 8.47 8.2 0 15.13-5.66 21.94-8.47 7.62-3.14 16.52-4.49 21.18-10.17 5.05-6.16 4.23-14.85 4.23-22.75 0.02-7.9 0.84-16.59-4.22-22.75zM94.4 52.94c0.09 6.88 0.17 13.35-3.58 17.92-2.82 3.43-7.9 5.12-13.28 6.9-2.24 0.74-4.53 1.5-6.73 2.41-2.22 0.91-4.43 2.1-6.57 3.25-4.58 2.46-9.29 4.99-14.24 4.99-4.95 0-9.66-2.53-14.22-4.98-2.15-1.16-4.37-2.35-6.59-3.26-2.23-0.92-4.52-1.68-6.74-2.41-5.39-1.78-10.47-3.47-13.28-6.9-3.74-4.56-3.66-11.04-3.58-17.9 0.01-1 0.03-1.98 0.03-2.96 0-0.98-0.01-1.96-0.02-2.96-0.09-6.86-0.17-13.34 3.58-17.9 2.82-3.43 7.9-5.11 13.28-6.9 2.23-0.74 4.52-1.5 6.74-2.41 2.22-0.92 4.44-2.11 6.59-3.26 4.56-2.45 9.28-4.99 14.22-4.99 4.94 0 9.66 2.53 14.22 4.98 2.15 1.16 4.37 2.35 6.59 3.26 2.22 0.92 4.52 1.67 6.73 2.41 5.38 1.78 10.47 3.47 13.28 6.9 3.75 4.57 3.67 11.04 3.58 17.9-0.01 1.01-0.03 1.99-0.03 2.96 0 0.98 0.01 1.96 0.02 2.95z" fill="#ffffff" fill-rule="nonzero" stroke="none" stroke-width="1" stroke-linecap="butt" stroke-linejoin="miter" stroke-miterlimit="10" stroke-dasharray="" stroke-dashoffset="0" font-family="none" font-weight="none" font-size="none" text-anchor="none" style="mix-blend-mode: normal" data-fill-palette-color="tertiary"></path></g><g transform="matrix(1,0,0,1,48.17785,98.1999722199641)"><svg viewBox="0 0 28.6443 28.6000555600718" height="28.6000555600718" width="28.6443"><g><svg viewBox="0 0 28.6443 28.6000555600718" height="28.6000555600718" width="28.6443"><g><svg viewBox="0 0 28.6443 28.6000555600718" height="28.6000555600718" width="28.6443"><g id="textblocktransform"><svg viewBox="0 0 28.6443 28.6000555600718" height="28.6000555600718" width="28.6443" id="textblock"><g><svg viewBox="0 0 28.6443 28.6000555600718" height="28.6000555600718" width="28.6443"><g><svg viewBox="0 0 28.6443 28.6000555600718" height="28.6000555600718" width="28.6443"><g><svg xmlns="http://www.w3.org/2000/svg" xmlns:xlink="http://www.w3.org/1999/xlink" version="1.1" x="0" y="0" viewBox="4.860769515458673 5 90.13923048454133 90" style="enable-background:new 0 0 100 100;" xml:space="preserve" height="28.6000555600718" width="28.6443" class="icon-icon-0" data-fill-palette-color="quaternary" id="icon-0"><g class="" display="none" fill="#ecf0fb" data-fill-palette-color="quaternary"><rect x="5" y="5" class="" width="90" height="90" display="inline" opacity="0.3" fill="#000000" enable-background="new" data-fill-palette-color="quaternary"></rect></g><g fill="#ecf0fb" data-fill-palette-color="quaternary"><g fill="#ecf0fb" data-fill-palette-color="quaternary"><path d="M94.6 40c-4.2 0-44.1 0-48.2 0-0.2 0-0.3 0.3-0.3 0.4-0.3 3.8-5.6 3.7-7 3.6-0.2 0-0.1 0.2-0.1 0.4v12.9c20 0 0.8 16.5-8.1 20.8-0.4 0.2-0.5 0.9 0 0.9h20.8c0.1 0 0.1 0 0.1-0.1 0.1-1.1 1.4-9.1 7.8-9.1s8 8 8.1 9.1c0 0.1 0.1 0.1 0.1 0.1h18.3c0.5 0 0.6-0.6 0.2-0.8-4.3-2.6-16.5-10.3-14.6-19C73.7 50 86 47.5 89.1 47c0.4-0.1 0.9-0.4 0.9-0.9V44h3.9c0.6 0 1.1-0.4 1.1-1v-2.4C95 40.4 94.8 40 94.6 40z" fill="#000000" data-fill-palette-color="quaternary"></path><path d="M36 47H5.1c-0.2 0-0.3 0.2-0.2 0.4 1.7 2 8.5 9.9 31.1 9.9V47z" fill="#000000" data-fill-palette-color="quaternary"></path></g><g fill="#ecf0fb" data-fill-palette-color="quaternary"><g fill="#ecf0fb" data-fill-palette-color="quaternary"><path d="M71.5 37.3c-0.2 0-0.5-0.1-0.7-0.3-0.4-0.4-0.3-1 0-1.3l9.8-9.2c0.4-0.4 1-0.3 1.3 0 0.4 0.4 0.3 1 0 1.3L72.1 37C71.9 37.2 71.7 37.3 71.5 37.3z" fill="#000000" data-fill-palette-color="quaternary"></path></g><g fill="#ecf0fb" data-fill-palette-color="quaternary"><path d="M80.3 36.8c-0.4 0-0.7-0.2-0.9-0.6-0.2-0.5 0.1-1 0.5-1.2l5.9-2.2c0.5-0.2 1 0.1 1.2 0.5 0.2 0.5-0.1 1-0.5 1.2l-5.9 2.3C80.5 36.8 80.4 36.8 80.3 36.8z" fill="#000000" data-fill-palette-color="quaternary"></path></g><g fill="#ecf0fb" data-fill-palette-color="quaternary"><path d="M58.6 34.4c-0.3 0-0.5-0.1-0.7-0.3l-9.4-11c-0.3-0.4-0.3-1 0.1-1.3 0.4-0.3 1-0.3 1.3 0.1l9.4 11c0.3 0.4 0.3 1-0.1 1.3C59.1 34.3 58.8 34.4 58.6 34.4z" fill="#000000" data-fill-palette-color="quaternary"></path></g><g fill="#ecf0fb" data-fill-palette-color="quaternary"><path d="M65.9 32.7c-0.1 0-0.2 0-0.3 0-0.5-0.2-0.7-0.7-0.6-1.2l2-5.9c0.2-0.5 0.7-0.7 1.2-0.6 0.5 0.2 0.7 0.7 0.6 1.2l-2 5.9C66.7 32.5 66.3 32.7 65.9 32.7z" fill="#000000" data-fill-palette-color="quaternary"></path></g><g fill="#ecf0fb" data-fill-palette-color="quaternary"><path d="M51.6 36.7c-0.1 0-0.3 0-0.4-0.1l-5.5-2.9c-0.5-0.2-0.6-0.8-0.4-1.3 0.2-0.5 0.8-0.6 1.3-0.4l5.4 3c0.5 0.2 0.6 0.8 0.4 1.3C52.2 36.5 51.9 36.7 51.6 36.7z" fill="#000000" data-fill-palette-color="quaternary"></path></g><g fill="#ecf0fb" data-fill-palette-color="quaternary"><path d="M61.7 28.9c-0.4 0-0.8-0.3-0.9-0.7l-1.5-5.1c-0.1-0.5 0.1-1 0.6-1.2 0.5-0.1 1 0.1 1.2 0.6l1.5 5.1c0.1 0.5-0.1 1-0.6 1.2C61.9 28.9 61.8 28.9 61.7 28.9z" fill="#000000" data-fill-palette-color="quaternary"></path></g></g></g></svg></g></svg></g></svg></g></svg></g></svg></g><g></g></svg></g></svg></g></svg></g><defs></defs></svg><rect width="125" height="225" fill="none" stroke="none" visibility="hidden"></rect></g></svg></g></svg>